<svg width="17" height="17" viewBox="0 0 17 17" fill="none" xmlns="http://www.w3.org/2000/svg">
<path d="M14.52 1.92432H14.0229V14.1364C14.0229 14.9477 13.3625 15.6081 12.5512 15.6081H7.51475H3.50974V16.0608C3.50974 16.5792 3.93047 16.9999 4.44885 16.9999H9.48353H14.5182C15.0366 16.9999 15.4573 16.5792 15.4573 16.0608V2.86344C15.4573 2.34506 15.0384 1.92432 14.52 1.92432Z" fill="#38C0FB"/>
<path d="M7.51474 15.0756H12.5494C13.0678 15.0756 13.4885 14.6549 13.4885 14.1365V1.92439V0.939119C13.4885 0.420739 13.0678 0 12.5494 0H7.51474H5.84066V0.310672C5.84419 0.342627 5.84599 0.376358 5.84599 0.410088V2.45698V2.98246C5.84599 3.71209 5.25304 4.30503 4.52341 4.30503H3.99793H1.95104C1.92441 4.30503 1.896 4.30326 1.86937 4.30148H1.54272V14.1365C1.54272 14.6549 1.96346 15.0756 2.48184 15.0756H3.5115H7.51474ZM7.7047 11.8837H4.42222C4.17723 11.8837 3.9784 11.6848 3.9784 11.4398C3.9784 11.1948 4.17723 10.996 4.42222 10.996H7.70647C7.95146 10.996 8.15029 11.1948 8.15029 11.4398C8.15029 11.6848 7.94968 11.8837 7.7047 11.8837ZM10.989 9.61844H4.42222C4.17723 9.61844 3.9784 9.41959 3.9784 9.17462C3.9784 8.92962 4.17723 8.7308 4.42222 8.7308H10.989C11.2339 8.7308 11.4328 8.92962 11.4328 9.17462C11.4328 9.41959 11.2339 9.61844 10.989 9.61844ZM4.42222 6.32529H10.989C11.2339 6.32529 11.4328 6.52412 11.4328 6.76911C11.4328 7.0141 11.2339 7.21293 10.989 7.21293H4.42222C4.17723 7.21293 3.9784 7.0141 3.9784 6.76911C3.9784 6.52412 4.17723 6.32529 4.42222 6.32529Z" fill="#A070DC"/>
<path d="M1.95077 3.77192H4.52314C4.52492 3.77192 4.52847 3.77192 4.53024 3.77192C4.95986 3.76837 5.30781 3.42042 5.31136 2.9908C5.31136 2.98903 5.31136 2.98548 5.31136 2.9837V0.409557C5.31136 0.171671 5.11608 0.0136719 4.91372 0.0136719C4.81608 0.0136719 4.71844 0.0491773 4.63678 0.13084L1.67028 3.09732C1.42174 3.34586 1.59749 3.77192 1.95077 3.77192Z" fill="#38C0FB"/>
</svg>
